<svg xmlns="http://www.w3.org/2000/svg" width="1919.96" height="492.28"><path d="M162.83 166.6v8.14l97.4 73v1.16l42.74 42.74v200.64H44.5L1.75 449.53H0V289.6h117.18v1.74l25.6 25.6V305.6L47.4 233.5 7.56 193.94l-4.65-3.78V0h254.7v1.75l42.75 42.74v152.36h-107.3l-30.24-30.24z"/><path d="M245.7 255L105.55 149.75V94.8h57.57v44.78h79.97V14.54H17.45V182.9L157.3 288.44v66.88h-54.67v-51.17h-88.1V435H245.7V255z" fill="#fff"/><path d="M332.06 0h282.92v1.75l42.74 42.74v447.8H376.55l-42.74-42.75h-1.75V0z"/><path d="M346.6 14.54h253.84V435H346.6z" fill="#fff"/><path d="M435 94.5h77.34v260.82H435zm441.38 20.06L908.37 0h127.36v1.75l42.74 42.74v447.8H969.72l-32.86-32.86-8.14 32.86h-47.68l-41-41v41H731.3l-42.74-42.75h-1.75V0h127.36l.58 2.04L857.2 44.5l19.2 70.07z"/><path d="M861.26 223.9L803.1 14.54H701.34V435h81.4V173.3L848.18 435h26.17l65.42-261.7V435h81.42V14.54H919.42L861.26 223.9z" fill="#fff"/><path d="M1297.13 114.56L1329.1 0h127.36v1.75l42.74 42.74v447.8h-108.74l-32.86-32.86-8.14 32.86h-47.7l-41-41v41h-108.74l-42.75-42.75h-1.74V0h127.35l.6 2.04 42.45 42.45 19.2 70.07z"/><path d="M1282 223.9l-58.15-209.35H1122.1V435h81.4V173.3l65.42 261.7h26.17l65.43-261.7V435h81.4V14.54h-101.77L1282 223.9z" fill="#fff"/><path d="M1717.88 114.56L1749.86 0h127.36v1.75l42.74 42.74v447.8H1811.2l-32.85-32.86-8.15 32.86h-47.68l-41-41v41h-108.75l-42.74-42.75h-1.75V0h127.36l.58 2.04 42.45 42.45 19.2 70.07z"/><path d="M1702.76 223.9L1644.6 14.54h-101.77V435h81.42V173.3l65.42 261.7h26.17l65.42-261.7V435h81.42V14.54H1760.9l-58.15 209.35z" fill="#fff"/></svg>