<svg width="56" height="32" viewBox="0 0 56 32" fill="none" xmlns="http://www.w3.org/2000/svg">
<g filter="url(#filter0_ddddii)">
<path d="M3 13C3 7.47715 7.47715 3 13 3H28V28H13C7.47715 28 3 23.5228 3 18V13Z" fill="#DEDEDE"/>
</g>
<g filter="url(#filter1_ddiiii)">
<path d="M28 3H43C48.5228 3 53 7.47715 53 13V18C53 23.5228 48.5228 28 43 28H28V3Z" fill="#E8E8E8"/>
</g>
<path d="M39.8945 15.6309C39.8945 16.3275 39.7741 16.9395 39.5332 17.4668C39.2923 17.9909 38.9473 18.3945 38.498 18.6777C38.0521 18.9577 37.5378 19.0977 36.9551 19.0977C36.3789 19.0977 35.8646 18.9577 35.4121 18.6777C34.9629 18.3945 34.6146 17.9925 34.3672 17.4717C34.123 16.9508 33.9993 16.3503 33.9961 15.6699V15.2695C33.9961 14.5762 34.1182 13.9642 34.3623 13.4336C34.6097 12.903 34.9564 12.4977 35.4023 12.2178C35.8516 11.9346 36.3659 11.793 36.9453 11.793C37.5247 11.793 38.0374 11.9329 38.4834 12.2129C38.9326 12.4896 39.2793 12.89 39.5234 13.4141C39.7676 13.9349 39.8913 14.542 39.8945 15.2354V15.6309ZM38.6592 15.2598C38.6592 14.472 38.5094 13.8682 38.21 13.4482C37.9137 13.0283 37.4922 12.8184 36.9453 12.8184C36.4115 12.8184 35.9932 13.0283 35.6904 13.4482C35.391 13.8649 35.238 14.4557 35.2314 15.2207V15.6309C35.2314 16.4121 35.3828 17.016 35.6855 17.4424C35.9915 17.8688 36.4147 18.082 36.9551 18.082C37.502 18.082 37.9219 17.8737 38.2148 17.457C38.5111 17.0404 38.6592 16.4316 38.6592 15.6309V15.2598ZM46.7646 19H45.5293L42.3604 13.9561V19H41.125V11.8906H42.3604L45.5391 16.9541V11.8906H46.7646V19Z" fill="#03AA00" fill-opacity="0.79"/>
<path d="M13.4463 15.6309C13.4463 16.3275 13.3258 16.9395 13.085 17.4668C12.8441 17.9909 12.499 18.3945 12.0498 18.6777C11.6038 18.9577 11.0895 19.0977 10.5068 19.0977C9.93066 19.0977 9.41634 18.9577 8.96387 18.6777C8.51465 18.3945 8.16634 17.9925 7.91895 17.4717C7.6748 16.9508 7.55111 16.3503 7.54785 15.6699V15.2695C7.54785 14.5762 7.66992 13.9642 7.91406 13.4336C8.16146 12.903 8.50814 12.4977 8.9541 12.2178C9.40332 11.9346 9.91764 11.793 10.4971 11.793C11.0765 11.793 11.5892 11.9329 12.0352 12.2129C12.4844 12.4896 12.8311 12.89 13.0752 13.4141C13.3193 13.9349 13.443 14.542 13.4463 15.2354V15.6309ZM12.2109 15.2598C12.2109 14.472 12.0612 13.8682 11.7617 13.4482C11.4655 13.0283 11.0439 12.8184 10.4971 12.8184C9.96322 12.8184 9.54492 13.0283 9.24219 13.4482C8.94271 13.8649 8.78971 14.4557 8.7832 15.2207V15.6309C8.7832 16.4121 8.93457 17.016 9.2373 17.4424C9.54329 17.8688 9.96647 18.082 10.5068 18.082C11.0537 18.082 11.4736 17.8737 11.7666 17.457C12.0628 17.0404 12.2109 16.4316 12.2109 15.6309V15.2598ZM18.7734 15.9873H15.9121V19H14.6768V11.8906H19.1934V12.8867H15.9121V15.001H18.7734V15.9873ZM24.2715 15.9873H21.4102V19H20.1748V11.8906H24.6914V12.8867H21.4102V15.001H24.2715V15.9873Z" fill="#AAA9A9"/>
<defs>
<filter id="filter0_ddddii" x="0" y="0" width="32" height="32" filterUnits="userSpaceOnUse" color-interpolation-filters="sRGB">
<feFlood flood-opacity="0" result="BackgroundImageFix"/>
<feColorMatrix in="SourceAlpha" type="matrix" values="0 0 0 0 0 0 0 0 0 0 0 0 0 0 0 0 0 0 127 0"/>
<feOffset dx="1" dy="1"/>
<feGaussianBlur stdDeviation="1.5"/>
<feColorMatrix type="matrix" values="0 0 0 0 0.635294 0 0 0 0 0.635294 0 0 0 0 0.635294 0 0 0 0.9 0"/>
<feBlend mode="normal" in2="BackgroundImageFix" result="effect1_dropShadow"/>
<feColorMatrix in="SourceAlpha" type="matrix" values="0 0 0 0 0 0 0 0 0 0 0 0 0 0 0 0 0 0 127 0"/>
<feOffset dx="-1" dy="-1"/>
<feGaussianBlur stdDeviation="1"/>
<feColorMatrix type="matrix" values="0 0 0 0 1 0 0 0 0 1 0 0 0 0 1 0 0 0 0.9 0"/>
<feBlend mode="normal" in2="effect1_dropShadow" result="effect2_dropShadow"/>
<feColorMatrix in="SourceAlpha" type="matrix" values="0 0 0 0 0 0 0 0 0 0 0 0 0 0 0 0 0 0 127 0"/>
<feOffset dx="1" dy="-1"/>
<feGaussianBlur stdDeviation="1"/>
<feColorMatrix type="matrix" values="0 0 0 0 0.635294 0 0 0 0 0.635294 0 0 0 0 0.635294 0 0 0 0.2 0"/>
<feBlend mode="normal" in2="effect2_dropShadow" result="effect3_dropShadow"/>
<feColorMatrix in="SourceAlpha" type="matrix" values="0 0 0 0 0 0 0 0 0 0 0 0 0 0 0 0 0 0 127 0"/>
<feOffset dx="-1" dy="1"/>
<feGaussianBlur stdDeviation="1"/>
<feColorMatrix type="matrix" values="0 0 0 0 0.635294 0 0 0 0 0.635294 0 0 0 0 0.635294 0 0 0 0.2 0"/>
<feBlend mode="normal" in2="effect3_dropShadow" result="effect4_dropShadow"/>
<feBlend mode="normal" in="SourceGraphic" in2="effect4_dropShadow" result="shape"/>
<feColorMatrix in="SourceAlpha" type="matrix" values="0 0 0 0 0 0 0 0 0 0 0 0 0 0 0 0 0 0 127 0" result="hardAlpha"/>
<feOffset dx="-1" dy="-1"/>
<feGaussianBlur stdDeviation="1"/>
<feComposite in2="hardAlpha" operator="arithmetic" k2="-1" k3="1"/>
<feColorMatrix type="matrix" values="0 0 0 0 0.635294 0 0 0 0 0.635294 0 0 0 0 0.635294 0 0 0 0.5 0"/>
<feBlend mode="normal" in2="shape" result="effect5_innerShadow"/>
<feColorMatrix in="SourceAlpha" type="matrix" values="0 0 0 0 0 0 0 0 0 0 0 0 0 0 0 0 0 0 127 0" result="hardAlpha"/>
<feOffset dx="1" dy="1"/>
<feGaussianBlur stdDeviation="1"/>
<feComposite in2="hardAlpha" operator="arithmetic" k2="-1" k3="1"/>
<feColorMatrix type="matrix" values="0 0 0 0 1 0 0 0 0 1 0 0 0 0 1 0 0 0 0.3 0"/>
<feBlend mode="normal" in2="effect5_innerShadow" result="effect6_innerShadow"/>
</filter>
<filter id="filter1_ddiiii" x="25" y="0" width="31" height="31" filterUnits="userSpaceOnUse" color-interpolation-filters="sRGB">
<feFlood flood-opacity="0" result="BackgroundImageFix"/>
<feColorMatrix in="SourceAlpha" type="matrix" values="0 0 0 0 0 0 0 0 0 0 0 0 0 0 0 0 0 0 127 0"/>
<feOffset dx="-1" dy="-1"/>
<feGaussianBlur stdDeviation="1"/>
<feColorMatrix type="matrix" values="0 0 0 0 0.607843 0 0 0 0 0.607843 0 0 0 0 0.607843 0 0 0 0.5 0"/>
<feBlend mode="normal" in2="BackgroundImageFix" result="effect1_dropShadow"/>
<feColorMatrix in="SourceAlpha" type="matrix" values="0 0 0 0 0 0 0 0 0 0 0 0 0 0 0 0 0 0 127 0"/>
<feOffset dx="1" dy="1"/>
<feGaussianBlur stdDeviation="1"/>
<feColorMatrix type="matrix" values="0 0 0 0 1 0 0 0 0 1 0 0 0 0 1 0 0 0 0.3 0"/>
<feBlend mode="normal" in2="effect1_dropShadow" result="effect2_dropShadow"/>
<feBlend mode="normal" in="SourceGraphic" in2="effect2_dropShadow" result="shape"/>
<feColorMatrix in="SourceAlpha" type="matrix" values="0 0 0 0 0 0 0 0 0 0 0 0 0 0 0 0 0 0 127 0" result="hardAlpha"/>
<feOffset dx="1" dy="1"/>
<feGaussianBlur stdDeviation="1.5"/>
<feComposite in2="hardAlpha" operator="arithmetic" k2="-1" k3="1"/>
<feColorMatrix type="matrix" values="0 0 0 0 0.607843 0 0 0 0 0.607843 0 0 0 0 0.607843 0 0 0 0.9 0"/>
<feBlend mode="normal" in2="shape" result="effect3_innerShadow"/>
<feColorMatrix in="SourceAlpha" type="matrix" values="0 0 0 0 0 0 0 0 0 0 0 0 0 0 0 0 0 0 127 0" result="hardAlpha"/>
<feOffset dx="-1" dy="-1"/>
<feGaussianBlur stdDeviation="1"/>
<feComposite in2="hardAlpha" operator="arithmetic" k2="-1" k3="1"/>
<feColorMatrix type="matrix" values="0 0 0 0 1 0 0 0 0 1 0 0 0 0 1 0 0 0 0.9 0"/>
<feBlend mode="normal" in2="effect3_innerShadow" result="effect4_innerShadow"/>
<feColorMatrix in="SourceAlpha" type="matrix" values="0 0 0 0 0 0 0 0 0 0 0 0 0 0 0 0 0 0 127 0" result="hardAlpha"/>
<feOffset dx="1" dy="-1"/>
<feGaussianBlur stdDeviation="1"/>
<feComposite in2="hardAlpha" operator="arithmetic" k2="-1" k3="1"/>
<feColorMatrix type="matrix" values="0 0 0 0 0.607843 0 0 0 0 0.607843 0 0 0 0 0.607843 0 0 0 0.2 0"/>
<feBlend mode="normal" in2="effect4_innerShadow" result="effect5_innerShadow"/>
<feColorMatrix in="SourceAlpha" type="matrix" values="0 0 0 0 0 0 0 0 0 0 0 0 0 0 0 0 0 0 127 0" result="hardAlpha"/>
<feOffset dx="-1" dy="1"/>
<feGaussianBlur stdDeviation="1"/>
<feComposite in2="hardAlpha" operator="arithmetic" k2="-1" k3="1"/>
<feColorMatrix type="matrix" values="0 0 0 0 0.607843 0 0 0 0 0.607843 0 0 0 0 0.607843 0 0 0 0.2 0"/>
<feBlend mode="normal" in2="effect5_innerShadow" result="effect6_innerShadow"/>
</filter>
</defs>
</svg>
