<?xml version="1.0" standalone="no"?>
<!DOCTYPE svg PUBLIC "-//W3C//DTD SVG 20010904//EN"
 "http://www.w3.org/TR/2001/REC-SVG-20010904/DTD/svg10.dtd">
<svg version="1.0" xmlns="http://www.w3.org/2000/svg"
 width="323.000000pt" height="83.000000pt" viewBox="0 0 323.000000 83.000000"
 preserveAspectRatio="xMidYMid meet">
<metadata>
Created by potrace 1.15, written by Peter Selinger 2001-2017
</metadata>
<g transform="translate(0.000000,83.000000) scale(0.100000,-0.100000)"
fill="#000000" stroke="none">
<path d="M30 667 l0 -133 120 -89 120 -89 0 -63 0 -63 -55 0 -55 0 0 45 0 45
-65 0 -65 0 0 -110 0 -110 190 0 190 0 0 149 0 150 -120 87 -120 88 0 48 0 48
55 0 55 0 0 -35 0 -35 65 0 65 0 0 100 0 100 -190 0 -190 0 0 -133z"/>
<path d="M590 450 l0 -350 205 0 205 0 0 350 0 350 -205 0 -205 0 0 -350z
m270 0 l0 -220 -70 0 -70 0 0 220 0 220 70 0 70 0 0 -220z"/>
<path d="M1190 450 l0 -350 60 0 60 0 1 223 c0 142 4 215 9 202 5 -11 28 -94
50 -185 23 -91 45 -182 51 -202 20 -76 35 -46 89 174 29 117 57 217 61 223 5
5 9 -88 9 -213 l0 -222 65 0 65 0 0 345 0 345 -83 0 -83 0 -28 -107 c-49 -179
-67 -236 -76 -227 -6 8 -62 200 -88 304 l-8 35 -77 3 -77 3 0 -351z"/>
<path d="M1890 450 l0 -350 60 0 60 0 0 222 c0 127 4 218 9 213 4 -6 30 -100
57 -209 47 -190 64 -239 79 -224 4 4 31 102 60 218 29 116 56 214 59 217 3 4
6 -93 6 -215 l0 -222 65 0 65 0 0 233 c0 127 3 283 7 345 l6 113 -88 -3 -88
-3 -43 -153 c-48 -175 -52 -187 -60 -179 -3 2 -27 81 -53 173 l-47 169 -77 3
-77 3 0 -351z"/>
<path d="M2600 450 l0 -350 60 0 60 0 0 78 c0 42 3 142 7 222 l6 145 56 -220
c41 -159 60 -220 70 -220 11 0 30 61 70 220 l56 220 3 -222 2 -223 70 0 70 0
0 350 0 350 -83 0 -84 0 -42 -152 c-24 -84 -47 -164 -53 -178 l-10 -25 -9 24
c-5 13 -28 93 -51 177 l-41 154 -78 0 -79 0 0 -350z"/>
</g>
</svg>
