<?xml version="1.0" encoding="UTF-8" standalone="no"?>
<!-- Created with Inkscape (http://www.inkscape.org/) -->

<svg
   xmlns:dc="http://purl.org/dc/elements/1.1/"
   xmlns:cc="http://creativecommons.org/ns#"
   xmlns:rdf="http://www.w3.org/1999/02/22-rdf-syntax-ns#"
   xmlns:svg="http://www.w3.org/2000/svg"
   xmlns="http://www.w3.org/2000/svg"
   xmlns:sodipodi="http://sodipodi.sourceforge.net/DTD/sodipodi-0.dtd"
   xmlns:inkscape="http://www.inkscape.org/namespaces/inkscape"
   width="210mm"
   height="297mm"
   viewBox="0 0 210 297"
   version="1.1"
   id="svg8"
   inkscape:version="0.92.3 (2405546, 2018-03-11)"
   sodipodi:docname="logovg.svg">
  <defs
     id="defs2" />
  <sodipodi:namedview
     id="base"
     pagecolor="#ffffff"
     bordercolor="#666666"
     borderopacity="1.0"
     inkscape:pageopacity="0.0"
     inkscape:pageshadow="2"
     inkscape:zoom="5.6"
     inkscape:cx="253.7788"
     inkscape:cy="739.64081"
     inkscape:document-units="mm"
     inkscape:current-layer="layer1"
     showgrid="false"
     inkscape:window-width="1920"
     inkscape:window-height="1021"
     inkscape:window-x="0"
     inkscape:window-y="28"
     inkscape:window-maximized="1" />
  <metadata
     id="metadata5">
    <rdf:RDF>
      <cc:Work
         rdf:about="">
        <dc:format>image/svg+xml</dc:format>
        <dc:type
           rdf:resource="http://purl.org/dc/dcmitype/StillImage" />
        <dc:title />
      </cc:Work>
    </rdf:RDF>
  </metadata>
  <g
     inkscape:label="Livello 1"
     inkscape:groupmode="layer"
     id="layer1">
    <path
       style="fill:#000000;stroke-width:0.26458335"
       d="m 60.542715,115.11613 -1.105958,-0.94666 v -3.81584 -3.81584 h 2.846772 c 2.560227,0 4.616364,-0.10025 3.921383,0.31656 0.181759,0.29104 -0.697217,-0.0732 -0.552929,-0.0732 0.59748,0 0.484712,0.31763 -1.15686,-0.88769 -0.90539,-0.58465 -2.427079,-1.76571 -3.290586,-2.48724 l -1.780772,-1.40619 0.01772,-4.589597 -0.01576,-4.63511 6.173658,0.0042 h 5.898037 l 1.113422,1.13449 1.113421,1.13449 v 3.49572 3.495711 l -2.579687,0.009 -2.429349,0.0424 0.611346,0.44048 c 0.363802,0.2905 1.585768,1.09868 2.635865,2.00388 l 1.734538,1.40201 0.01837,5.29688 0.009,4.82865 h -6.037792 -6.037792 z m 10.518585,-5.99865 -0.01712,-4.29948 -3.282504,-2.38125 -3.282504,-2.38125 -0.0077,-1.389061 -0.0077,-1.38907 h 1.322916 1.322917 v 1.05834 1.05833 h 1.984375 1.984375 v -2.91042 -2.91041 h -5.423958 -5.423959 v 3.83295 3.832951 l 3.29596,2.4509 3.29596,2.45091 0.01133,1.78593 0.01133,1.78594 h -1.322917 -1.322917 v -1.32292 -1.32291 h -1.984302 -1.984375 v 3.175 3.175 h 5.423959 5.423958 z m -3.156896,-7.73802 c -0.341235,-0.36323 -0.07411,-0.374 -0.14266,-0.30545 -0.114566,0.11456 -0.131529,-0.11136 0.125198,-0.0912 0.06175,0.005 0.358697,0.75991 0.01746,0.39668 z m 8.201866,13.7265 -1.059096,-0.95683 V 103.46429 92.779459 h 6.605027 6.605026 l 1.061276,1.12448 1.061273,1.12448 0.0066,10.517181 0.0066,10.51719 h -6.613821 -6.613821 z m 11.640904,-11.61088 v -9.921871 h -5.953125 -5.953125 v 9.921871 9.92188 h 5.953125 5.953125 z m -7.9375,0 v -6.217711 h 1.852083 1.852084 v 6.217711 6.21771 h -1.852084 -1.852083 z m 13.276792,11.62105 -1.105959,-0.94666 V 103.47446 92.779459 h 3.009011 3.009011 l 1.119149,0.999197 c 0.530942,0.981477 0.716762,1.624366 1.091652,2.83365 0.53119,1.713477 0.49995,1.73152 1.60364,-1.504757 l 0.6074,-2.32809 h 2.97259 2.9726 l 1.06127,1.12448 1.06128,1.12448 0.007,10.517181 0.007,10.51719 h -2.56709 c -2.51204,0 -2.58523,-0.0176 -3.41285,-0.81974 l -0.84576,-0.81975 -0.18005,0.81975 c -0.16586,0.75515 -0.26611,0.81974 -1.27235,0.81974 -0.90272,0 -1.26644,-0.17004 -2.09564,-0.97974 l -1.003343,-0.97974 v 0.97974 0.97974 h -2.465916 c -2.445962,0 -2.474868,-0.008 -3.571875,-0.94666 z m 3.418551,-7.98303 0.0266,-6.28385 1.548114,6.08542 c 0.851467,3.34697 1.553872,6.17471 1.560907,6.28385 0.007,0.10914 0.250915,0.19844 0.541962,0.19844 0.29104,0 0.53492,-0.0893 0.54195,-0.19844 0.007,-0.10914 0.70944,-2.93688 1.5609,-6.28385 l 1.54812,-6.08542 0.0266,6.28385 0.0266,6.28386 h 1.98437 1.98438 v -9.93181 l -0.0354,-9.79006 -2.43057,-0.0066 -2.41876,0.01704 -1.32663,4.82864 c -0.72964,2.65576 -1.38997,4.82865 -1.46739,4.82865 -0.0774,0 -0.735686,-2.17289 -1.462814,-4.82865 l -1.316151,-4.964475 -2.3147,-0.0055 -2.308794,-0.01153 v 9.932185 9.93218 h 1.852084 1.852083 z m 16.425193,7.98303 -1.10595,-0.94666 V 103.47446 92.779459 h 3.00901 3.00901 l 1.60357,0.865563 c -0.14558,-0.212884 0.68896,2.403364 0.81603,2.942227 0.44047,1.867935 0.22038,1.851317 1.39484,-1.4797 l 0.6074,-2.32809 h 2.97259 2.9726 l 1.06127,1.12448 1.06128,1.12448 0.007,10.517181 0.007,10.51719 h -2.56709 c -2.51204,0 -2.58523,-0.0176 -3.41285,-0.81974 l -0.84576,-0.81975 -0.18005,0.81975 c -0.16586,0.75515 -0.26611,0.81974 -1.27235,0.81974 -0.90272,0 -1.26644,-0.17004 -2.09564,-0.97974 l -1.00334,-0.97974 v 0.97974 0.97974 h -2.46592 c -2.44596,0 -2.47487,-0.008 -3.57188,-0.94666 z m 3.41856,-7.98303 0.0266,-6.28385 1.54812,6.08542 c 0.85146,3.34697 1.55387,6.17471 1.5609,6.28385 0.007,0.10914 0.25092,0.19844 0.54196,0.19844 0.29104,0 0.53492,-0.0893 0.54196,-0.19844 0.007,-0.10914 0.70944,-2.93688 1.5609,-6.28385 l 1.54812,-6.08542 0.0266,6.28385 0.0266,6.28386 h 1.98437 1.98438 v -9.93181 l 0.0236,-9.766436 -2.50145,-0.03021 -2.40694,0.01704 -1.32663,4.82864 c -0.72964,2.655766 -1.38997,4.828656 -1.46739,4.828656 -0.0774,0 -0.73569,-2.17289 -1.46282,-4.828656 l -1.35547,-4.995683 -2.24197,-0.0096 -2.3422,0.02373 v 9.932179 9.93218 h 1.85208 1.85208 z m 16.68978,7.98303 -1.10596,-0.94666 V 103.47446 92.779459 h 3.00901 3.00901 l 1.51991,0.840998 c 0,0 0.63963,1.803032 0.89969,2.966792 0.41664,1.86441 0.20256,2.223141 1.39484,-1.4797 l 0.6074,-2.32809 h 2.9726 2.97259 l 1.06128,1.12448 1.06127,1.12448 0.007,10.517181 0.007,10.51719 h -2.56709 c -2.51203,0 -2.58523,-0.0176 -3.41285,-0.81974 l -0.84576,-0.81975 -0.18005,0.81975 c -0.16586,0.75515 -0.26611,0.81974 -1.27234,0.81974 -0.90272,0 -1.26645,-0.17004 -2.09565,-0.97974 l -1.00334,-0.97974 v 0.97974 0.97974 h -2.46592 c -2.44596,0 -2.47487,-0.008 -3.57187,-0.94666 z m 3.41855,-7.98303 0.0266,-6.28385 1.54812,6.08542 c 0.85147,3.34697 1.55387,6.17471 1.56091,6.28385 0.007,0.10914 0.25091,0.19844 0.54195,0.19844 0.29104,0 0.53492,-0.0893 0.54196,-0.19844 0.007,-0.10914 0.70944,-2.93688 1.56091,-6.28385 l 1.54811,-6.08542 0.0266,6.28385 0.0266,6.28386 h 1.98437 1.98438 v -9.93181 -9.931801 l -2.41876,0.01704 -2.43056,-0.0066 -1.36207,4.970381 c -0.72791,2.65624 -1.38998,4.82865 -1.4674,4.82865 -0.0774,0 -0.73569,-2.17289 -1.46282,-4.82865 l -1.28661,-4.934946 -2.29699,-0.05278 -2.35604,0.0062 v 9.932186 9.93218 h 1.85208 1.85209 z"
       id="path75"
       inkscape:connector-curvature="0"
       sodipodi:nodetypes="ccccscscccccccccccccccccccccccccccccccccccccccccccccccccccccccccscccccccccccccccccccccccccccccccccccccccscccccccscccsccccsccccccscsccccccccccscccccccccccccccccscccccccscccsccccsccccscscsccccccccccscccccccccccccccccscccccccscccsccccsccccccscccccccccccsssccccccccc" />
  </g>
</svg>
