<?xml version="1.0" encoding="UTF-8" standalone="no"?>
<svg
   xmlns:dc="http://purl.org/dc/elements/1.1/"
   xmlns:cc="http://creativecommons.org/ns#"
   xmlns:rdf="http://www.w3.org/1999/02/22-rdf-syntax-ns#"
   xmlns:svg="http://www.w3.org/2000/svg"
   xmlns="http://www.w3.org/2000/svg"
   xmlns:sodipodi="http://sodipodi.sourceforge.net/DTD/sodipodi-0.dtd"
   xmlns:inkscape="http://www.inkscape.org/namespaces/inkscape"
   version="1.0"
   width="777.000000pt"
   height="1099.000000pt"
   viewBox="0 0 777.000000 1099.000000"
   preserveAspectRatio="xMidYMid meet"
   id="svg16"
   sodipodi:docname="logo_som_3d.svg"
   inkscape:version="0.92.3 (2405546, 2018-03-11)">
  <defs
     id="defs20" />
  <sodipodi:namedview
     pagecolor="#ffffff"
     bordercolor="#666666"
     borderopacity="1"
     objecttolerance="10"
     gridtolerance="10"
     guidetolerance="10"
     inkscape:pageopacity="0"
     inkscape:pageshadow="2"
     inkscape:window-width="1368"
     inkscape:window-height="717"
     id="namedview18"
     showgrid="false"
     inkscape:zoom="0.16105551"
     inkscape:cx="226.70075"
     inkscape:cy="886.41706"
     inkscape:window-x="0"
     inkscape:window-y="23"
     inkscape:window-maximized="1"
     inkscape:current-layer="g14" />
  <metadata
     id="metadata2">
Created by potrace 1.15, written by Peter Selinger 2001-2017
<rdf:RDF>
  <cc:Work
     rdf:about="">
    <dc:format>image/svg+xml</dc:format>
    <dc:type
       rdf:resource="http://purl.org/dc/dcmitype/StillImage" />
  </cc:Work>
</rdf:RDF>
</metadata>
  <g
     transform="translate(0.000000,1099.000000) scale(0.100000,-0.100000)"
     fill="#000000"
     stroke="none"
     id="g14">
    <path
       d="M1830 9601 c-69 -24 -134 -92 -153 -159 l-14 -47 -22 50 c-43 97 -108 140 -211 139 -211 -1 -305 -214 -232 -524 l17 -75 59 -3 c50 -3 58 -1 52 13 -45 119 -56 312 -20 379 30 58 64 79 131 83 120 8 168 -53 179 -224 l7 -103 49 0 48 0 0 83 c0 142 36 222 114 258 108 49 226 3 272 -106 36 -87 28 -261 -16 -363 l-19 -43 61 3 62 3 19 70 c30 108 29 269 -2 363 -28 86 -87 159 -155 190 -67 32 -159 37 -226 13z"
       id="path4" />
    <path
       d="M4815 9262 c-132 -2 -655 -8 -1163 -15 l-923 -12 -401 -850 -401 -850 424 -843 424 -844 305 6 c168 4 692 11 1165 17 473 6 861 12 862 12 0 1 181 384 401 852 l401 849 -421 836 c-231 459 -424 837 -427 840 -3 3 -114 4 -246 2z m603 -871 c221 -439 402 -803 402 -808 0 -6 -170 -372 -379 -814 l-379 -804 -73 -7 c-123 -11 -2160 -31 -2170 -21 -5 5 -189 366 -409 803 l-399 795 382 811 382 811 360 7 c346 7 1386 21 1720 24 l160 2 403 -799z"
       id="path6"
       style="fill:#000000;fill-opacity:1" />
    <path
       d="M3550 9058 c-382 -6 -696 -11 -698 -13 -2 -1 164 -337 368 -746 l372 -744 -352 -753 c-194 -414 -351 -754 -349 -757 4 -4 937 7 1757 21 l392 6 0 115 0 115 -62 -6 c-35 -3 -373 -8 -753 -11 -379 -3 -754 -8 -832 -11 -116 -5 -143 -4 -143 7 0 7 133 298 296 645 l295 632 -315 631 c-174 347 -316 633 -316 634 0 2 287 7 638 11 350 3 746 9 880 13 l242 6 0 108 0 109 -362 -2 c-200 -1 -676 -5 -1058 -10z"
       id="path8"
       style="fill:#f40000;fill-opacity:0" />
    <path
       d="M3815 5574 c-329 -34 -571 -137 -755 -324 -112 -115 -184 -244 -226 -407 -60 -236 -35 -510 66 -718 134 -278 403 -466 764 -532 128 -24 415 -23 551 1 427 77 726 321 830 681 51 176 54 392 9 574 -92 366 -401 632 -819 706 -89 15 -342 27 -420 19z m428 -325 c292 -59 494 -214 574 -440 38 -106 44 -290 14 -409 -61 -242 -256 -413 -557 -490 -124 -32 -324 -45 -475 -31 -267 24 -447 98 -589 242 -118 119 -171 258 -172 449 0 78 5 136 17 180 75 287 346 479 730 519 130 14 338 5 458 -20z"
       id="path10" />
    <path
       d="M4282 3210 c-103 -27 -166 -64 -247 -145 -122 -121 -171 -240 -236 -564 -71 -354 -104 -430 -215 -489 -12 -6 -51 -16 -88 -22 -139 -22 -267 27 -338 128 -131 189 -127 533 12 870 21 53 37 98 35 100 -2 3 -65 1 -139 -3 l-135 -7 -15 -52 c-55 -188 -86 -383 -86 -546 0 -486 235 -780 625 -780 281 0 452 133 549 425 15 44 45 168 66 275 21 107 45 215 53 240 43 138 130 243 229 276 78 26 206 23 282 -6 160 -61 246 -242 246 -514 0 -192 -44 -371 -140 -573 l-49 -103 103 0 c57 0 123 3 148 6 l45 6 26 82 c70 218 99 390 99 586 0 460 -164 742 -473 815 -91 21 -265 19 -357 -5z"
       id="path12" />
    <path
       style="fill:#000000;fill-opacity:1;stroke:#000000;stroke-width:7.32203245;stroke-linejoin:miter;stroke-miterlimit:4;stroke-dasharray:none;stroke-opacity:1;paint-order:stroke fill markers"
       d="m 374.10056,669.16454 c -1.34896,-2.26382 -25.6055,-50.10527 -53.90341,-106.31434 l -51.45074,-102.19829 50.68488,-107.6203 50.68489,-107.62031 13.26303,-0.64702 c 17.86587,-0.87155 168.5845,-2.93053 233.33453,-3.1876 l 52.13664,-0.207 53.37919,106.46851 53.3792,106.46851 -8.13784,17.56182 c -4.4758,9.659 -27.22562,58.13791 -50.55514,107.73092 l -42.41732,90.1691 -12.70256,0.69846 c -20.10747,1.10565 -153.72071,2.78773 -222.51273,2.80126 l -62.72996,0.0123 z M 572.8092,657.84276 c 52.21896,-0.65365 96.0549,-1.40836 97.4132,-1.67713 2.42059,-0.47897 2.46963,-0.7946 2.46963,-15.89529 v -15.40661 l -17.28742,0.63343 c -20.21025,0.74054 -220.99364,3.07269 -221.41861,2.57183 -0.4086,-0.48154 5.71935,-13.85419 44.41737,-96.92934 l 34.25641,-73.54011 -41.87932,-83.81562 c -23.03362,-46.09859 -41.71214,-83.9828 -41.50781,-84.18712 0.20432,-0.20432 37.15245,-0.88016 82.10694,-1.50185 44.95451,-0.6217 97.41761,-1.45864 116.58469,-1.85988 l 34.84923,-0.72951 v -15.12939 -15.12938 l -51.31344,0.49028 c -119.70306,1.14374 -230.28103,2.85857 -231.02766,3.58276 -0.44178,0.4285 21.3901,45.34586 48.51529,99.81636 l 49.3185,99.03727 -20.91418,44.7152 c -37.95106,81.14058 -70.85724,152.23948 -71.69951,154.91787 l -0.82911,2.63655 46.50111,-0.70593 c 25.57561,-0.38827 89.22573,-1.24075 141.44469,-1.89439 z"
       id="path831"
       inkscape:connector-curvature="0"
       transform="matrix(7.4999999,0,0,-7.4999999,0,10990)" />
  </g>
</svg>
